<svg width="170" height="56" viewBox="0 0 170 56" fill="none" xmlns="http://www.w3.org/2000/svg">
<rect width="170" height="56" fill="#F9F9F9"/>
<path d="M36.544 34H37.744L42.096 22.544H40.912L37.872 30.496C37.696 30.928 37.408 31.728 37.168 32.56C36.912 31.76 36.688 31.136 36.448 30.512L33.392 22.544H32.16L36.544 34ZM43.946 24.128C44.394 24.128 44.778 23.76 44.778 23.312C44.778 22.864 44.394 22.48 43.946 22.48C43.498 22.48 43.13 22.864 43.13 23.312C43.13 23.76 43.498 24.128 43.946 24.128ZM43.402 34H44.506V26.256H43.402V34ZM50.0563 34.192C51.8803 34.192 53.0803 33.312 53.4963 31.68H52.4403C52.1523 32.704 51.3363 33.248 50.0723 33.248C48.4083 33.248 47.4163 32.16 47.3363 30.272H53.4963V29.728C53.4963 27.536 52.0723 26.048 49.9763 26.048C47.7682 26.048 46.2643 27.712 46.2643 30.128C46.2643 32.56 47.7843 34.192 50.0563 34.192ZM49.9763 26.992C51.4323 26.992 52.3923 27.984 52.3923 29.472H47.3683C47.5603 27.952 48.5203 26.992 49.9763 26.992ZM56.6903 34H57.7943L59.3943 29.136C59.6023 28.496 59.7303 28.032 59.8423 27.616C59.9383 28.08 60.0663 28.56 60.2583 29.136L61.8583 34H62.9303L65.5543 26.256H64.4023L62.8663 30.928C62.5943 31.76 62.5623 31.952 62.4023 32.592C62.2583 32.016 62.0663 31.344 61.9223 30.928L60.4023 26.256H59.2663L57.7303 30.928C57.6503 31.184 57.3943 31.968 57.2663 32.592C57.1063 31.968 56.9623 31.44 56.7863 30.928L55.2663 26.256H54.1303L56.6903 34ZM70.8268 30.144C70.8268 32.576 72.3148 34.192 74.5068 34.192C76.2668 34.192 77.6428 33.152 78.0108 31.568H76.8908C76.5868 32.56 75.6588 33.2 74.5068 33.2C72.9388 33.2 71.9148 31.968 71.9148 30.128C71.9148 28.224 73.0188 27.024 74.5868 27.024C75.6588 27.024 76.5868 27.616 76.8748 28.688H77.9788C77.6748 27.088 76.3628 26.048 74.5708 26.048C72.3148 26.048 70.8268 27.712 70.8268 30.144ZM79.1393 30.128C79.1393 32.48 80.8033 34.192 83.0753 34.192C85.3473 34.192 87.0113 32.48 87.0113 30.128C87.0113 27.76 85.3473 26.048 83.0753 26.048C80.8033 26.048 79.1393 27.76 79.1393 30.128ZM80.2593 30.112C80.2593 28.32 81.4113 27.04 83.0753 27.04C84.7233 27.04 85.8913 28.32 85.8913 30.112C85.8913 31.936 84.7233 33.2 83.0753 33.2C81.4113 33.2 80.2593 31.936 80.2593 30.112ZM89.929 34V22.336H88.825V34H89.929ZM93.429 34V22.336H92.325V34H93.429ZM99.025 34.192C100.849 34.192 102.049 33.312 102.465 31.68H101.409C101.121 32.704 100.305 33.248 99.041 33.248C97.377 33.248 96.385 32.16 96.305 30.272H102.465V29.728C102.465 27.536 101.041 26.048 98.945 26.048C96.737 26.048 95.233 27.712 95.233 30.128C95.233 32.56 96.753 34.192 99.025 34.192ZM98.945 26.992C100.401 26.992 101.361 27.984 101.361 29.472H96.337C96.529 27.952 97.489 26.992 98.945 26.992ZM103.686 30.144C103.686 32.576 105.174 34.192 107.366 34.192C109.126 34.192 110.502 33.152 110.87 31.568H109.75C109.446 32.56 108.518 33.2 107.366 33.2C105.798 33.2 104.774 31.968 104.774 30.128C104.774 28.224 105.878 27.024 107.446 27.024C108.518 27.024 109.446 27.616 109.734 28.688H110.838C110.534 27.088 109.222 26.048 107.43 26.048C105.174 26.048 103.686 27.712 103.686 30.144ZM114.319 34V27.184H115.871V26.256H114.319V23.808H113.231V26.256H111.679V27.184H113.231V34H114.319ZM117.852 24.128C118.3 24.128 118.684 23.76 118.684 23.312C118.684 22.864 118.3 22.48 117.852 22.48C117.404 22.48 117.036 22.864 117.036 23.312C117.036 23.76 117.404 24.128 117.852 24.128ZM117.308 34H118.412V26.256H117.308V34ZM120.171 30.128C120.171 32.48 121.835 34.192 124.107 34.192C126.379 34.192 128.043 32.48 128.043 30.128C128.043 27.76 126.379 26.048 124.107 26.048C121.835 26.048 120.171 27.76 120.171 30.128ZM121.291 30.112C121.291 28.32 122.443 27.04 124.107 27.04C125.755 27.04 126.923 28.32 126.923 30.112C126.923 31.936 125.755 33.2 124.107 33.2C122.443 33.2 121.291 31.936 121.291 30.112ZM130.912 34V29.952C130.912 28.208 131.808 27.056 133.392 27.056C134.672 27.056 135.488 27.696 135.488 29.504V34H136.592V29.264C136.592 27.312 135.712 26.048 133.584 26.048C132.464 26.048 131.44 26.608 130.928 27.6L130.768 26.256H129.808V34H130.912Z" fill="#2A254B"/>
</svg>
