<svg width="118" height="56" viewBox="0 0 118 56" fill="none" xmlns="http://www.w3.org/2000/svg">
<rect width="118" height="56" fill="#2A254B"/>
<path d="M32.704 25.52C32.704 27.088 33.648 28.112 35.44 28.544L37.376 29.024C38.608 29.312 39.184 29.984 39.184 31.008C39.184 32.32 38.112 33.136 36.432 33.136C34.864 33.136 33.808 32.352 33.744 31.152H32.56C32.704 33.024 34.208 34.192 36.432 34.192C38.8 34.192 40.336 32.928 40.336 30.944C40.336 29.392 39.408 28.368 37.616 27.936L35.648 27.456C34.448 27.152 33.856 26.512 33.856 25.504C33.856 24.208 34.912 23.376 36.528 23.376C37.968 23.376 38.848 24.112 38.976 25.408H40.144C39.968 23.488 38.608 22.336 36.544 22.336C34.24 22.336 32.704 23.6 32.704 25.52ZM42.7116 24.128C43.1596 24.128 43.5436 23.76 43.5436 23.312C43.5436 22.864 43.1596 22.48 42.7116 22.48C42.2636 22.48 41.8956 22.864 41.8956 23.312C41.8956 23.76 42.2636 24.128 42.7116 24.128ZM42.1676 34H43.2716V26.256H42.1676V34ZM45.0459 29.904C45.0459 32.016 46.3899 33.76 48.5979 33.76C49.9259 33.76 50.9979 33.12 51.5259 32.032V33.872C51.5259 35.488 50.4699 36.56 48.8859 36.56C47.4939 36.56 46.5339 35.824 46.2939 34.576H45.1899C45.4939 36.448 46.8859 37.568 48.8699 37.568C51.1419 37.568 52.6139 36.064 52.6139 33.76V26.256H51.6539L51.5419 27.808C51.0459 26.672 50.0219 26.048 48.6779 26.048C46.4059 26.048 45.0459 27.792 45.0459 29.904ZM46.1499 29.888C46.1499 28.32 47.1099 27.024 48.7739 27.024C50.4699 27.024 51.4299 28.24 51.4299 29.888C51.4299 31.552 50.4379 32.768 48.7579 32.768C47.1259 32.768 46.1499 31.472 46.1499 29.888ZM56.0216 34V29.952C56.0216 28.208 56.9176 27.056 58.5016 27.056C59.7816 27.056 60.5976 27.696 60.5976 29.504V34H61.7016V29.264C61.7016 27.312 60.8216 26.048 58.6936 26.048C57.5736 26.048 56.5496 26.608 56.0376 27.6L55.8776 26.256H54.9176V34H56.0216ZM73.7795 26.256V30.368C73.7795 32.208 72.8995 33.2 71.4115 33.2C70.1795 33.2 69.3635 32.544 69.3635 30.704V26.24H68.2435V31.056C68.2435 32.944 69.2355 34.192 71.0595 34.192C72.2755 34.192 73.3475 33.584 73.7795 32.688L73.9235 34H74.8835V26.256H73.7795ZM77.1833 37.376H78.2873V32.512C78.8313 33.632 79.8713 34.192 81.1833 34.192C83.4713 34.192 84.7673 32.432 84.7673 30.096C84.7673 27.76 83.4233 26.048 81.1833 26.048C79.8873 26.048 78.7993 26.624 78.2553 27.824L78.1432 26.256H77.1833V37.376ZM78.3033 30.128C78.3033 28.336 79.2953 27.056 80.9913 27.056C82.6713 27.056 83.6473 28.336 83.6473 30.128C83.6473 31.904 82.6713 33.2 80.9913 33.2C79.2953 33.2 78.3033 31.904 78.3033 30.128Z" fill="white"/>
</svg>
